<svg fill="none" height="252" width="172" xmlns="http://www.w3.org/2000/svg"><path d="m168.002 72.312c0 37.265 10.996 74.563-35.774 74.563s-115.149-27.275-115.149-64.539 23.381-75.297 70.151-75.297 80.772 28.009 80.772 65.273z" fill="#46e997"/><g stroke="#000" stroke-miterlimit="10" stroke-width="2.509"><path d="m147.064 141.735-3.267 17.288c-.641 3.395-.796 7.829 2.322 9.303 2.756 1.302 6.069-1.11 7.013-4.013s.296-6.05-.054-9.083c-.985-8.528.523-17.33 4.286-25.042 1.697 3.159-1.266 8.093 1.61 10.227 1.817 1.349 4.514.072 5.803-1.791 2.929-4.235 1.355-9.935 1.106-15.081-.296-6.143 1.484-12.167 2.622-18.21 3.676-19.518.51-40.262-8.822-57.784s-24.762-31.701-42.985-39.497c-7.822-3.346-16.177-5.552-24.672-5.975-10.289-.513-20.587 1.591-30.283 5.081-22.187 7.985-41.955 23.853-52.277 45.1s-10.255 47.864 2.343 67.838c2.109 3.343 4.547 6.505 6.163 10.115 1.281 2.859 3.135 6.65 6.191 5.989.596-.129 1.169-.439 1.776-.385 1.461.129 1.881 2.005 2.406 3.379.85 2.226 2.984 3.904 5.345 4.199.84.105 1.77.074 2.424.611 1.172.963.583 2.827.001 4.229-1.535 3.7-2.274 8.149-.2 11.576s7.845 4.449 9.959 1.046c2.383-3.835-1.547-8.59-1.434-13.108.014-.567.119-1.182.532-1.569.79-.739 2.067-.203 2.965.4 4.427 2.969 8.154 6.982 10.791 11.622.41-1.919.868-3.936 2.182-5.392s3.78-2.065 5.232-.747c.628.571 1 1.422 1.739 1.838 1.587.891 3.362-.771 4.427-2.25 2.547 2.016 1.187 6.011.172 9.101s-.177 7.879 3.057 7.608c2.394-.202 3.391-3.272 3.079-5.661s-1.318-4.829-.59-7.125c.204-.644.563-1.267 1.136-1.622 2.208-1.371 4.339 2.191 3.949 4.766s-1.499 5.627.336 7.472c1.403 1.409 3.947 1.063 5.349-.347s1.831-3.547 1.725-5.535c-.142-2.665-.66-6.205 1.806-7.214 2.816-1.151 4.99 2.793 7.852 3.818 4.569 1.637 8.827-4.594 13.617-3.826 2.229.358 4.485 2.21 6.483 1.156 2.178-1.149 2.056-4.933 4.397-5.695 1.603-.522 3.152.779 4.525 1.76s3.603 1.554 4.799-.035c1.475-5.104 7.404-7.204 12.529-8.557a129.34 129.34 0 0 1 -.548 12.558c-.177 1.914-.418 3.892-1.41 5.538-1.059 1.759-2.849 2.929-4.607 3.987-25.672 15.45-57.951 19.403-86.641 9.759-2.183-.779-4.51-1.668-5.817-3.586-.658-.967-.993-2.116-1.26-3.256-.419-1.794-.694-3.622-.82-5.46-.02-.28-.03-.583.126-.817.269-.406.92-.371 1.282-.047s.499.826.583 1.305c.272 1.566.155 3.171.296 4.753s.6 3.232 1.772 4.303c1.543 1.41 3.923 1.479 5.606 2.719 1.63 1.201-4.912-2.135-3.861.46.678 1.628 17.21 53.069 19.099 68.05.502 3.987 10.173 5.409 11.966 6.005 8.763 2.908 18.534 2.663 27.141-.681 1.429-.556 2.9-1.253 3.761-2.526.465-.687.716-1.493.96-2.286l7.417-24.027c5.395-17.475 10.796-34.976 14.68-52.851"/><path d="m17.822 40.776c.214 2.28 2.448 3.942 4.706 4.282s4.533-.33 6.719-.991l8.852-2.682c1.789-.542 3.759-1.077 5.474-.331 1.499.651 2.458 2.144 3.828 3.039 2.945 1.921 6.867.66 10.325 1.281 6.058 1.089 9.462 7.561 11.207 13.478.834 2.831 1.502 5.756 1.383 8.706-.241 5.981-3.64 11.311-6.926 16.308-.935 1.421-1.909 2.882-3.332 3.812-3.267 2.134-7.604.791-11.169-.794-1.379-.613-3.016-1.248-4.322-.492-1.617.936-1.579 3.281-2.584 4.859-1.488 2.335-4.913 2.454-7.515 1.523s-4.942-2.631-7.664-3.108c-3.251-.57-6.518.681-9.573 1.935s-6.285 2.56-9.554 2.097-5.932-5.431-5.658-8.414c1.218.041 4.237 14.888 5.501 21.165.58 2.877 1.726 6.236 4.566 6.95 1.24.311 2.542.018 3.779-.306a76.89 76.89 0 0 0 23.34-10.53c5.086-3.417 9.908-7.517 15.776-9.269 2.552-.762 5.396-1.028 7.813.092 2.505 1.16 4.159 3.611 5.389 6.088 1.437 2.894 2.442 6.47.803 9.255-2.281 3.875-8.769 4.621-9.489 9.062-.455 2.804 1.827 5.256 2.58 7.995 1.225 4.455-1.682 9.395-.057 13.719.468 1.245 1.289 2.345 1.652 3.624s.085 2.918-1.109 3.495c-.538.26-1.165.258-1.753.158-1.969-.331-3.627-1.641-5.072-3.022a36.87 36.87 0 0 1 -6.332-8.011c-1.726-2.95-3.139-6.255-5.868-8.307-1.485-1.116-3.257-1.774-4.844-2.738-5.458-3.317-8.194-10.549-6.303-16.659.227-.736.516-1.474.491-2.243-.043-1.274-.933-2.349-1.85-3.234-1.868-1.803-4.044-3.283-6.404-4.357-1.774-.808-6.587-1.372-8.32-.478-2.187 1.128-5.447 6.464-3.59 8.082s10.776-1.132 11.586-3.459-1.281-5.148-3.739-5.039m148.629-20.938c-2.865-1.331-5.128-3.656-7.624-5.594s-5.545-3.575-8.672-3.135c-1.654.232-3.169 1.027-4.752 1.563-5.573 1.891-12.255.702-16.952 4.255-.655.495-1.28 1.128-1.429 1.937-.331 1.8 1.68 3.015 3.202 4.027 4.7 3.126 6.898 9.565 5.095 14.921-.819 2.435-2.348 4.588-3.11 7.042-.768 2.471-.719 5.112-.664 7.7l.241 11.18c.04 1.813.43 4.097 2.183 4.539.758.191 1.562-.058 2.247-.433 2.788-1.526 4.008-4.798 5.618-7.544 3.23-5.509 8.548-9.397 12.991-13.976s8.257-10.695 7.171-16.99c-.863-5.004-4.619-8.972-6.546-13.667-2.399-5.844-1.19-13.688 4.302-16.791 1.259 2.358-.704 5.399-3.229 6.26s-5.286.203-7.87-.459l-15.185-3.892c-.97-.249-2.002-.496-2.953-.181-1.933.64-2.481 3.137-4.022 4.469-2.311 1.996-6.081.674-8.044-1.665-1.806-2.151-3.192-5.306-5.989-5.526-1.935-.154-3.615 1.264-5.49 1.769-3.786 1.023-7.525-1.793-10.006-4.838-2.742-3.366-4.847-7.251-6.167-11.39-.583-1.826-1.017-3.756-.73-5.65.485-3.215 2.911-5.739 5.214-8.029 1.621-1.613 3.295-3.261 5.39-4.172 2.77-1.204 5.915-.974 8.918-1.284a24.61 24.61 0 0 0 14.194-6.483c-3.227-3.535-8.74-4.742-13.143-2.878-2.617 1.108-5.536 3.188-7.967 1.714-1.609-.976-2.014-3.474-.796-4.909s3.743-1.436 4.962 0c1.673 1.972.293 5.301-2.05 6.391s-5.108.546-7.552-.293-4.862-1.972-7.445-2.018c-2.974-.054-5.933 1.46-7.635 3.908-.804 1.156-1.373 2.533-2.509 3.363-.391.286-.85.506-1.136.899-.817 1.12.441 2.77 1.818 2.908s2.658-.63 3.902-1.237c1.672-.815 3.485-1.388 4.974-2.504s2.627-2.989 2.186-4.799-8.976 1.782-10.251 3.138"/></g></svg>